<svg width="43" height="43" viewBox="0 0 43 43" fill="none" xmlns="http://www.w3.org/2000/svg">
<rect x="2" y="2" width="39" height="39" rx="3" stroke="white" stroke-width="4"/>
<path d="M23.4286 9.92857C23.4286 9.41708 23.2254 8.92654 22.8637 8.56487C22.502 8.20319 22.0115 8 21.5 8C20.9885 8 20.498 8.20319 20.1363 8.56487C19.7746 8.92654 19.5714 9.41708 19.5714 9.92857V19.5714H9.92857C9.41708 19.5714 8.92654 19.7746 8.56487 20.1363C8.20319 20.498 8 20.9885 8 21.5C8 22.0115 8.20319 22.502 8.56487 22.8637C8.92654 23.2254 9.41708 23.4286 9.92857 23.4286H19.5714V33.0714C19.5714 33.5829 19.7746 34.0735 20.1363 34.4351C20.498 34.7968 20.9885 35 21.5 35C22.0115 35 22.502 34.7968 22.8637 34.4351C23.2254 34.0735 23.4286 33.5829 23.4286 33.0714V23.4286H33.0714C33.5829 23.4286 34.0735 23.2254 34.4351 22.8637C34.7968 22.502 35 22.0115 35 21.5C35 20.9885 34.7968 20.498 34.4351 20.1363C34.0735 19.7746 33.5829 19.5714 33.0714 19.5714H23.4286V9.92857Z" fill="white"/>
</svg>
